<?xml version="1.0" standalone="no"?>
<!DOCTYPE svg PUBLIC "-//W3C//DTD SVG 20010904//EN"
 "http://www.w3.org/TR/2001/REC-SVG-20010904/DTD/svg10.dtd">
<svg version="1.0" xmlns="http://www.w3.org/2000/svg"
 width="209.000000pt" height="208.000000pt" viewBox="0 0 209.000000 208.000000"
 preserveAspectRatio="xMidYMid meet">
<metadata>
Created by potrace 1.12, written by Peter Selinger 2001-2015
</metadata>
<g transform="translate(0.000000,208.000000) scale(0.100000,-0.100000)"
fill="#000000" stroke="none">
<path d="M985 1984 c-105 -65 -157 -108 -144 -117 27 -20 239 -212 239 -217 0
-10 -237 -170 -252 -170 -17 0 -238 207 -238 223 0 7 54 45 120 86 66 41 118
76 115 79 -6 7 -244 -137 -272 -165 -15 -14 -23 -34 -23 -56 0 -61 -12 -127
-24 -127 -6 0 -46 14 -89 31 -44 16 -83 29 -88 27 -5 -2 36 -21 91 -42 55 -22
99 -44 97 -49 -2 -6 -56 -46 -120 -90 l-117 -79 -105 42 c-104 42 -106 43 -88
63 17 19 17 20 -3 9 -43 -23 -49 -39 -31 -90 9 -26 15 -37 13 -24 -3 13 1 22
9 22 18 0 157 -59 172 -74 14 -13 85 -247 78 -255 -3 -2 -35 8 -73 23 -37 16
-72 30 -78 33 -22 9 -22 -39 1 -105 13 -37 24 -62 24 -55 1 6 -3 22 -8 35 -17
48 -21 78 -10 78 6 0 48 -17 93 -38 91 -43 88 -38 129 -182 36 -123 37 -130
22 -130 -7 0 -53 21 -101 47 -49 26 -83 40 -77 32 7 -9 10 -18 7 -22 -3 -3 -3
-15 1 -28 5 -15 9 -18 15 -9 6 9 30 0 92 -34 47 -25 92 -54 100 -63 19 -21 83
-222 74 -230 -7 -7 -66 23 -148 77 -31 21 -54 31 -51 24 2 -7 53 -41 111 -75
59 -35 167 -98 239 -141 73 -43 142 -78 153 -78 11 0 20 -4 20 -8 0 -9 215
-136 247 -146 17 -6 46 13 147 94 69 56 126 104 126 106 0 3 -26 -15 -57 -41
-163 -131 -174 -138 -188 -124 -20 22 -70 249 -58 268 20 33 229 188 239 178
4 -3 17 -48 30 -99 13 -51 22 -79 19 -61 -4 28 2 36 48 76 29 25 97 78 152
119 55 41 105 81 111 89 6 8 26 48 44 89 17 41 36 82 41 90 27 46 90 173 87
176 -3 2 -22 -32 -43 -76 -36 -75 -46 -85 -131 -150 -50 -39 -94 -70 -97 -70
-4 0 -4 7 -1 15 4 8 13 15 21 15 8 0 21 16 29 35 17 41 17 48 3 40 -6 -4 -1
11 10 33 13 26 49 61 109 106 49 36 93 66 98 66 10 0 144 269 144 288 0 15
-257 245 -286 256 -13 6 -24 15 -24 21 0 19 -231 227 -274 246 -14 7 -26 18
-28 25 -3 13 -254 234 -266 234 -4 -1 -61 -34 -127 -76z m136 -48 c21 -19 54
-38 74 -42 40 -7 70 -40 55 -60 -6 -6 -31 -14 -56 -17 -25 -2 -59 -14 -75 -26
-33 -24 -58 -27 -84 -7 -17 12 -18 17 -6 54 11 33 12 47 1 71 -10 25 -10 34 0
46 20 24 50 18 91 -19z m147 -455 c56 -52 102 -99 102 -106 0 -6 -41 -41 -91
-78 l-91 -67 -30 25 c-16 14 -35 25 -43 25 -7 0 -18 7 -25 15 -7 9 -19 14 -26
11 -26 -10 -80 18 -131 67 -42 40 -50 54 -40 63 6 7 63 46 125 88 98 66 116
75 130 64 10 -7 63 -55 120 -107z m-592 -38 c55 -20 105 -42 112 -48 11 -10
-5 -26 -87 -84 -165 -117 -140 -112 -267 -61 -60 24 -113 46 -117 50 -12 10
223 180 248 180 7 0 57 -16 111 -37z m824 -189 c0 -3 -12 -9 -27 -15 -22 -8
-24 -12 -13 -19 12 -8 12 -10 1 -10 -10 0 -11 -3 -2 -14 9 -11 9 -15 -1 -19
-8 -4 -5 -8 10 -13 17 -5 21 -11 16 -26 -4 -15 -2 -19 12 -16 10 2 19 -1 19
-7 1 -20 15 -33 33 -28 35 9 23 -35 -19 -68 -38 -30 -41 -30 -58 -15 -14 12
-21 14 -26 6 -5 -9 -10 -9 -19 0 -8 8 -8 13 1 18 18 11 -12 53 -32 46 -8 -4
-18 1 -21 10 -3 9 -13 16 -20 16 -20 0 -38 44 -30 74 3 14 13 26 21 26 8 0 15
5 15 10 0 6 9 10 21 10 15 0 19 5 15 15 -4 11 1 15 17 15 12 0 28 4 36 9 12 8
51 4 51 -5z m-1060 -67 l95 -42 37 -120 c38 -124 45 -165 28 -165 -6 0 -54 22
-108 49 l-98 49 -42 130 c-23 71 -42 132 -42 136 0 14 40 3 130 -37z m719 10
c11 -14 61 -242 61 -278 0 -12 -41 -49 -116 -105 -132 -97 -137 -100 -151 -82
-13 17 -73 247 -73 281 0 23 18 39 127 112 71 47 131 85 134 85 4 0 12 -6 18
-13z m-452 -109 c54 -22 105 -48 114 -57 17 -17 83 -259 77 -284 -2 -12 -26
-5 -113 35 -60 27 -114 53 -118 57 -8 8 -86 258 -87 279 0 20 23 14 127 -30z
m-162 -255 c95 -47 96 -48 110 -97 8 -27 15 -53 15 -57 0 -9 -93 34 -162 75
-45 26 -68 64 -68 114 0 17 -1 17 105 -35z m699 -19 c16 -64 46 -218 46 -238
0 -15 -29 -44 -106 -104 -59 -45 -112 -82 -119 -82 -16 0 -79 251 -71 277 7
19 213 172 232 173 7 0 15 -12 18 -26z m320 -81 c-14 -32 -30 -68 -34 -79 -10
-25 -172 -164 -191 -164 -15 0 -7 54 18 105 12 27 49 63 118 117 55 43 103 78
107 78 4 0 -4 -26 -18 -57z m-1064 -3 c8 12 10 11 10 -5 0 -16 19 -30 78 -60
42 -21 81 -39 86 -39 9 -1 38 -96 30 -96 -9 0 -150 74 -176 91 -18 13 -32 38
-42 73 -18 60 -20 84 -5 46 8 -20 12 -22 19 -10z m139 -223 l95 -52 33 -120
c18 -66 32 -121 33 -122 2 -19 -184 83 -212 114 -9 10 -28 61 -43 113 -15 52
-30 101 -32 108 -9 24 32 10 126 -41z m282 -147 c64 -32 103 -59 109 -73 9
-20 60 -218 60 -231 0 -3 -5 -6 -12 -6 -15 0 -204 108 -216 123 -8 12 -62 206
-62 226 0 18 17 13 121 -39z"/>
</g>
</svg>
